<svg width="24" height="24" viewBox="0 0 24 24" xmlns="http://www.w3.org/2000/svg">
    <g fill="none" fill-rule="evenodd">
        <path d="M12 18.83l-2.795-2.794 6.83-6.83L18.83 12c1.886 1.886 1.886 4.943 0 6.83-1.887 1.885-4.945 1.885-6.83 0zM7.343 6.1c.343.344.343.9 0 1.243-.685.685-.685 1.798 0 2.483.343.345.343.9 0 1.242-.343.344-.9.344-1.242 0-1.37-1.37-1.37-3.595 0-4.967.344-.34.9-.34 1.243 0zM12 5.17l2.794 2.794-6.83 6.83L5.17 12c-1.886-1.886-1.886-4.944 0-6.83 1.886-1.886 4.944-1.886 6.83 0zm5.277 2.794l-1.24-1.242L13.24 3.93c-2.57-2.573-6.74-2.573-9.31 0-2.573 2.57-2.573 6.74 0 9.31l6.828 6.832c2.572 2.57 6.74 2.57 9.313 0 2.573-2.573 2.573-6.742 0-9.314l-2.793-2.794z" fill="#DFC79C" />
    </g>
</svg>