<svg width="24" height="24" viewBox="0 0 24 24" xmlns="http://www.w3.org/2000/svg" xmlns:xlink="http://www.w3.org/1999/xlink">
    <defs>
        <path id="a" d="M0 .002V20h20V.002H0z" />
    </defs>
    <g fill="none" fill-rule="evenodd">
        <g transform="translate(2 2)">
            <mask id="b" fill="#fff">
                <use xlink:href="#a" />
            </mask>
            <path d="M17.643 13.48l-4.162 4.162c-.103.105-.275.07-.338-.064-.587-1.238-.372-2.76.652-3.784s2.547-1.24 3.785-.652c.13.064.167.235.063.338m-13.28-2.633c-.19-.19-.368-.386-.54-.585 1.434-.524 2.78-1.36 3.93-2.51 1.15-1.15 1.985-2.495 2.51-3.928.198.17.394.35.584.54 2.767 2.766 3.56 6.46 1.768 8.252-1.79 1.79-5.484.998-8.25-1.77m-1.77-8.25c1.384-1.384 3.904-1.22 6.255.2-.426 1.382-1.182 2.685-2.275 3.778C5.48 7.67 4.18 8.425 2.797 8.848c-1.42-2.35-1.584-4.87-.2-6.253m17.208 10.137l-.118-.116c-1.248-1.25-2.99-1.695-4.597-1.348.192-.98.143-2.064-.147-3.17h1.576c.458 0 .833-.376.833-.834 0-.458-.375-.833-.834-.833h-2.193c-.267-.564-.593-1.123-.977-1.667h1.086c.458 0 .833-.375.833-.833 0-.46-.376-.834-.834-.834h-2.5l-.004.002c-3.41-3.34-8.095-4.1-10.515-1.68-2.44 2.44-1.65 7.19 1.768 10.607.528.527 1.09.983 1.666 1.384v2.207c0 .448.368.816.817.816H5.7c.45 0 .818-.367.818-.816v-1.25c1.647.76 3.334 1.01 4.792.715-.337 1.65.15 3.45 1.423 4.723.26.26.683.26.944 0l6.128-6.128c.26-.26.26-.684 0-.944" fill="#A3DFD4" mask="url(#b)" />
        </g>
        <path d="M8.273 6.102c.325-.326.325-.854 0-1.18-.326-.325-.854-.325-1.18 0-.324.326-.324.854 0 1.18.326.325.854.325 1.18 0" fill="#A3DFD4" />
    </g>
</svg>