<svg width="24" height="24" viewBox="0 0 24 24" xmlns="http://www.w3.org/2000/svg" xmlns:xlink="http://www.w3.org/1999/xlink">
    <defs>
        <path id="a" d="M0 20V0h20v20z" />
    </defs>
    <g transform="translate(2 2)" fill="none" fill-rule="evenodd">
        <mask id="b" fill="#fff">
            <use xlink:href="#a" />
        </mask>
        <path d="M13.257 17.592c-1.217-1.624-1.947-3.635-1.947-5.82 0-1.12.192-2.195.54-3.196 2.272 1.242 4.145 3.114 5.407 5.373-.883 1.62-2.293 2.91-4 3.642m-5.153.44c-.394-1.58-.61-3.23-.61-4.932 0-2.033.3-3.995.855-5.848.646.148 1.275.34 1.884.577-.45 1.23-.694 2.557-.694 3.942 0 2.35.71 4.53 1.92 6.352-.474.085-.96.137-1.46.137-.654 0-1.286-.083-1.896-.227M1.947 11.82c1.568-1.285 2.792-2.975 3.508-4.913.382.005.76.025 1.135.06-.56 1.948-.868 4.004-.868 6.133 0 1.435.146 2.837.408 4.196-2.094-1.112-3.648-3.1-4.183-5.475m-.058-.272l.037.196-.038-.196M1.74 10c0-.964.173-1.886.476-2.746.418-.095.84-.175 1.272-.23-.438.94-1.048 1.793-1.75 2.542m2.59-5.562c-.044.4-.11.793-.2 1.176-.302.022-.6.055-.897.094.323-.46.692-.884 1.1-1.27m6.6-2.21c1.078.122 2.096.446 3.008.943-1.205.95-2.222 2.127-2.97 3.48-.656-.26-1.334-.478-2.03-.646.53-1.333 1.203-2.596 1.992-3.775m-4.77.895c.813-.428 1.707-.72 2.652-.856-.642 1.084-1.2 2.224-1.652 3.416-.4-.048-.804-.083-1.213-.1.142-.722.218-1.467.218-2.23 0-.077-.003-.153-.006-.23M18.26 10c0 .644-.08 1.268-.22 1.868-1.4-2.038-3.265-3.733-5.457-4.907.713-1.252 1.7-2.325 2.874-3.15C17.173 5.323 18.26 7.532 18.26 10M10 0C4.477 0 0 4.478 0 10c0 5.523 4.477 10 10 10s10-4.477 10-10c0-5.522-4.477-10-10-10" fill="#E6D99D" mask="url(#b)" />
    </g>
</svg>