<svg width="24" height="24" viewBox="0 0 24 24" xmlns="http://www.w3.org/2000/svg">
    <g fill="#DBADA0" fill-rule="evenodd">
        <path d="M12.033 4.143h-.066c-.375 0-.682-.307-.682-.68V2.68c0-.373.307-.68.682-.68h.066c.375 0 .68.307.68.68v.782c0 .374-.305.68-.68.68M12.033 22h-.066c-.375 0-.682-.307-.682-.68v-.782c0-.374.307-.68.682-.68h.066c.375 0 .68.306.68.68v.78c0 .375-.305.682-.68.682M19.857 12.022v-.044c0-.38.312-.692.692-.692h.76c.38 0 .69.312.69.692v.044c0 .38-.31.693-.69.693h-.76c-.38 0-.693-.313-.693-.693M2 12.022v-.044c0-.38.31-.692.69-.692h.76c.38 0 .693.312.693.692v.044c0 .38-.312.693-.692.693h-.76c-.38 0-.69-.313-.69-.693M17.566 6.434c-.28-.278-.28-.732 0-1.01l.504-.505c.278-.28.733-.28 1.01 0 .28.276.28.732 0 1.01l-.504.504c-.278.28-.732.28-1.01 0M4.92 19.08c-.28-.277-.28-.732 0-1.01l.504-.505c.278-.278.733-.278 1.01 0 .278.278.278.733 0 1.01l-.504.506c-.278.28-.732.28-1.01 0M17.566 17.566c.278-.28.732-.28 1.01 0l.505.504c.28.278.28.734 0 1.01-.277.28-.732.28-1.01 0l-.504-.504c-.28-.278-.28-.732 0-1.01M4.92 4.92c.278-.28.732-.28 1.01 0l.505.504c.277.278.277.733 0 1.01-.278.28-.733.28-1.01 0l-.506-.504c-.28-.278-.28-.733 0-1.01M12 17.714c-3.155 0-5.714-2.56-5.714-5.714 0-3.155 2.56-5.714 5.714-5.714 3.155 0 5.714 2.56 5.714 5.714 0 3.155-2.56 5.714-5.714 5.714m0-12.857c-3.945 0-7.143 3.197-7.143 7.143 0 3.946 3.198 7.143 7.143 7.143s7.143-3.197 7.143-7.143c0-3.946-3.198-7.143-7.143-7.143" />
    </g>
</svg>