<?xml version="1.0" encoding="UTF-8"?>
<svg width="28px" height="28px" viewBox="0 0 28 28" version="1.1" xmlns="http://www.w3.org/2000/svg" xmlns:xlink="http://www.w3.org/1999/xlink">
    <!-- Generator: Sketch 47.1 (45422) - http://www.bohemiancoding.com/sketch -->
    <title>穿衣icon</title>
    <desc>Created with Sketch.</desc>
    <defs></defs>
    <g id="Page-1" stroke="none" stroke-width="1" fill="none" fill-rule="evenodd">
        <g id="主页-无限行指数" transform="translate(-128.000000, -1237.000000)">
            <g id="指数" transform="translate(0.000000, 1224.000000)">
                <g id="穿衣指数" transform="translate(128.000000, 13.000000)">
                    <g id="穿衣icon">
                        <rect id="Rectangle-9" fill="#D8D8D8" opacity="0" x="0" y="0" width="28" height="28"></rect>
                        <path d="M22.813497,10.6093542 L22.242464,11.1690625 C22.0050048,11.4018125 21.6577004,11.4588125 21.3653186,11.3424375 L21.3653186,8.07047917 L22.813497,9.4899375 C23.1288978,9.79908333 23.1288978,10.3006042 22.813497,10.6093542 L22.813497,10.6093542 Z M19.7499495,21.625 C19.7499495,22.0623958 19.3885107,22.4166667 18.942265,22.4166667 L10.057735,22.4166667 C9.61189315,22.4166667 9.25005048,22.0623958 9.25005048,21.625 L9.25005048,7.375 C9.25005048,6.938 9.61189315,6.58333333 10.057735,6.58333333 L10.5459803,6.58333333 C10.7014596,6.58333333 10.8379583,6.67279167 10.9086307,6.80777083 C11.5790089,8.08433333 12.9347074,8.95833333 14.5,8.95833333 C16.0652926,8.95833333 17.4209911,8.08433333 18.0913693,6.80777083 C18.1620417,6.67279167 18.2989442,6.58333333 18.4540197,6.58333333 L18.942265,6.58333333 C19.3885107,6.58333333 19.7499495,6.938 19.7499495,7.375 L19.7499495,21.625 Z M7.6346814,11.3424375 C7.34229959,11.4588125 6.99499524,11.4018125 6.75753599,11.1690625 L6.18650301,10.6093542 C5.8711022,10.3006042 5.8711022,9.79908333 6.18650301,9.4899375 L7.6346814,8.07047917 L7.6346814,11.3424375 Z M24.5265959,8.93022917 L21.0999942,5.5711875 C20.9420919,5.41641667 20.7595552,5.3004375 20.5649032,5.22325 C20.3246171,5.08470833 20.048389,5 19.7499495,5 L18.5384227,5 L17.6245276,5 C17.2566273,5 16.9383996,5.24541667 16.8467274,5.59454167 C16.5773646,6.6185625 15.6287391,7.375 14.5,7.375 C13.3712609,7.375 12.4230392,6.6185625 12.1536764,5.59454167 C12.0616004,5.24541667 11.7433727,5 11.3754724,5 L10.4615773,5 L9.25005048,5 C8.95161104,5 8.67538293,5.08470833 8.43509678,5.22325 C8.2404448,5.3004375 8.0579081,5.41641667 7.90000577,5.5711875 L4.4734041,8.93022917 C3.84219863,9.548125 3.84219863,10.5511667 4.4734041,11.1690625 L6.18650301,12.8485833 C6.58024923,13.2345208 7.12624398,13.3793958 7.6346814,13.2836042 L7.6346814,22.4166667 C7.6346814,23.2910625 8.3579629,24 9.25005048,24 L19.7499495,24 C20.6420371,24 21.3653186,23.2910625 21.3653186,22.4166667 L21.3653186,13.2836042 C21.873756,13.3793958 22.4197508,13.2345208 22.813497,12.8485833 L24.5265959,11.1690625 C25.1578014,10.5511667 25.1578014,9.548125 24.5265959,8.93022917 L24.5265959,8.93022917 Z" id="Fill-1" fill="#E1A4C4"></path>
                    </g>
                </g>
            </g>
        </g>
    </g>
</svg>