<?xml version="1.0" encoding="UTF-8"?>
<svg width="28px" height="28px" viewBox="0 0 28 28" version="1.1" xmlns="http://www.w3.org/2000/svg" xmlns:xlink="http://www.w3.org/1999/xlink">
    <!-- Generator: Sketch 47.1 (45422) - http://www.bohemiancoding.com/sketch -->
    <title>旅游icon</title>
    <desc>Created with Sketch.</desc>
    <defs></defs>
    <g id="Page-1" stroke="none" stroke-width="1" fill="none" fill-rule="evenodd">
        <g id="主页-无限行指数2" transform="translate(-34.000000, -1237.000000)">
            <g id="指数" transform="translate(0.000000, 1224.000000)">
                <g id="旅游指数" transform="translate(26.000000, 13.000000)">
                    <g id="旅游icon" transform="translate(8.000000, 0.000000)">
                        <rect id="Rectangle-8" fill="#D8D8D8" opacity="0" x="0" y="0" width="28" height="28"></rect>
                        <path d="M21.2858,19.4165833 C21.2858,20.1040833 20.7068,20.6665833 20.0000857,20.6665833 L8.00008571,20.6665833 C7.29294286,20.6665833 6.71437143,20.1040833 6.71437143,19.4165833 L6.71437143,11.9165833 C6.71437143,11.2295 7.29294286,10.6665833 8.00008571,10.6665833 L20.0000857,10.6665833 C20.7068,10.6665833 21.2858,11.2295 21.2858,11.9165833 L21.2858,19.4165833 Z M11.4423714,8.99991667 L16.5852286,8.99991667 L16.5852286,5.66658333 L11.4423714,5.66658333 L11.4423714,8.99991667 Z M20.4286571,8.99991667 L18.2995143,8.99991667 L18.2995143,5.66658333 L18.7143714,5.66658333 C19.1858,5.66658333 19.5715143,5.292 19.5715143,4.83325 C19.5715143,4.37491667 19.1858,3.99991667 18.7143714,3.99991667 L9.2858,3.99991667 C8.81394286,3.99991667 8.42865714,4.37491667 8.42865714,4.83325 C8.42865714,5.292 8.81394286,5.66658333 9.2858,5.66658333 L9.72808571,5.66658333 L9.72808571,8.99991667 L7.57151429,8.99991667 C6.1568,8.99991667 5.00008571,10.1249167 5.00008571,11.4999167 L5.00008571,19.83325 C5.00008571,21.20825 6.1568,22.33325 7.57151429,22.33325 L8.0138,22.33325 L8.0138,23.1665833 C8.0138,23.6253333 8.39951429,23.9999167 8.87094286,23.9999167 C9.34237143,23.9999167 9.72808571,23.6253333 9.72808571,23.1665833 L9.72808571,22.33325 L18.2995143,22.33325 L18.2995143,23.1665833 C18.2995143,23.6253333 18.6852286,23.9999167 19.1566571,23.9999167 C19.6280857,23.9999167 20.0138,23.6253333 20.0138,23.1665833 L20.0138,22.33325 L20.4286571,22.33325 C21.8429429,22.33325 23.0000857,21.20825 23.0000857,19.83325 L23.0000857,11.4999167 C23.0000857,10.1249167 21.8429429,8.99991667 20.4286571,8.99991667 L20.4286571,8.99991667 Z" id="Fill-1" fill="#EDAC96"></path>
                        <path d="M10.5,12 C10.22475,12 10,12.39375 10,12.875 L10,18.125 C10,18.6066875 10.22475,19 10.5,19 C10.775,19 11,18.6066875 11,18.125 L11,12.875 C11,12.39375 10.775,12 10.5,12" id="Fill-4" fill="#EDAC96"></path>
                        <path d="M17.5,12 C17.22475,12 17,12.39375 17,12.875 L17,18.125 C17,18.6066875 17.22475,19 17.5,19 C17.775,19 18,18.6066875 18,18.125 L18,12.875 C18,12.39375 17.775,12 17.5,12" id="Fill-6" fill="#EDAC96"></path>
                    </g>
                </g>
            </g>
        </g>
    </g>
</svg>