<svg width="24" height="24" viewBox="0 0 24 24" xmlns="http://www.w3.org/2000/svg" xmlns:xlink="http://www.w3.org/1999/xlink">
    <defs>
        <path id="a" d="M20 19H0V0h20v19z" />
    </defs>
    <g transform="translate(2 3)" fill="none" fill-rule="evenodd">
        <mask id="b" fill="#fff">
            <use xlink:href="#a" />
        </mask>
        <path d="M17.952 8.53H15.07c0-2.497-.916-4.793-2.43-6.555 2.805.902 4.98 3.195 5.69 6.065.06.25-.12.49-.378.49zm-7.172 0H6.49c0-2.717 1.278-5.228 3.27-6.797.14-.11.34-.11.48 0 1.99 1.57 3.27 4.08 3.27 6.797h-2.73zm-8.732 0c-.258 0-.44-.24-.378-.49.71-2.87 2.885-5.163 5.69-6.065C5.845 3.737 4.93 6.033 4.93 8.53H2.048zm17.926-.273C19.11 3.56 14.974 0 10 0S.89 3.56.025 8.257c-.174.95.568 1.825 1.54 1.825H9.22v6.543c0 .415-.306.792-.722.822-.452.032-.83-.32-.838-.76-.007-.38-.28-.722-.656-.78-.486-.074-.904.298-.904.767 0 1.308 1.086 2.364 2.412 2.325 1.28-.04 2.268-1.15 2.268-2.424v-6.494h7.655c.972 0 1.714-.875 1.54-1.825z" fill="#C1A4E0" mask="url(#b)" />
    </g>
</svg>